<svg xmlns="http://www.w3.org/2000/svg" width="174" height="95" viewBox="0 0 174 95" fill="none">
<path d="M100.03 2.44958C99.8298 2.19173 99.6299 2.0628 99.2967 1.93387C99.0301 1.80495 98.6969 1.74049 98.4304 1.74049C98.2971 1.74049 98.1638 1.74049 97.9639 1.80495C97.8306 1.80495 97.6973 1.86941 97.564 1.93387C97.4307 1.99834 97.3641 2.0628 97.2975 2.19173C97.2308 2.32065 97.1642 2.44958 97.1642 2.64296C97.1642 2.77189 97.1642 2.90082 97.2308 3.02974C97.2975 3.15867 97.3641 3.22313 97.4974 3.28759C97.6307 3.35206 97.764 3.41652 97.9639 3.48098C98.1638 3.54544 98.2971 3.60991 98.5636 3.67437C98.8968 3.80329 99.1634 3.86776 99.4966 3.99668C99.8298 4.12561 100.096 4.25453 100.363 4.44792C100.63 4.64131 100.829 4.89916 101.029 5.15701C101.229 5.41486 101.296 5.80164 101.296 6.25288C101.296 6.76858 101.229 7.15536 101.029 7.54214C100.829 7.92891 100.563 8.18676 100.296 8.44461C99.9631 8.70247 99.6299 8.83139 99.23 8.96032C98.8302 9.08924 98.3637 9.1537 97.9639 9.1537C97.2975 9.1537 96.6977 9.02478 96.0979 8.83139C95.4982 8.638 95.0317 8.31569 94.6318 7.92891L95.9647 6.44627C96.1646 6.70412 96.4978 6.89751 96.831 7.0909C97.1642 7.28428 97.564 7.34875 97.8972 7.34875C98.0305 7.34875 98.2304 7.34875 98.3637 7.28428C98.497 7.28428 98.6303 7.21982 98.7636 7.15536C98.8968 7.0909 98.9635 6.96197 99.0301 6.83305C99.0968 6.70412 99.1634 6.57519 99.1634 6.3818C99.1634 6.18842 99.0968 6.05949 99.0301 5.99503C98.9635 5.8661 98.8302 5.80164 98.6969 5.67271C98.5636 5.54379 98.3637 5.47933 98.0972 5.41486C97.8972 5.3504 97.6307 5.28594 97.2975 5.15701C97.0309 5.09255 96.6977 4.96362 96.4311 4.8347C96.1646 4.70577 95.898 4.57685 95.6981 4.38346C95.4982 4.19007 95.2982 3.93222 95.165 3.67437C95.0317 3.41652 94.965 3.0942 94.965 2.70743C94.965 2.25619 95.0983 1.80495 95.2982 1.48263C95.4982 1.16032 95.7647 0.838006 96.0979 0.644618C96.4311 0.45123 96.7643 0.257841 97.2308 0.193379C97.6307 0.0644531 98.0305 0.0644531 98.497 0.0644531C99.0301 0.0644531 99.4966 0.128916 100.03 0.322304C100.563 0.515693 101.029 0.773544 101.429 1.09586L100.03 2.44958Z" fill="#322625"></path>
<path d="M112.759 1.99843V8.8315H110.56V1.99843H108.094V0.257935H115.291V1.99843H112.759Z" fill="#322625"></path>
<path d="M129.885 7.02643C129.685 7.47767 129.418 7.79999 129.085 8.1223C128.752 8.44462 128.352 8.63801 127.885 8.8314C127.419 9.02479 126.886 9.08925 126.286 9.08925C125.686 9.08925 125.153 9.02479 124.686 8.8314C124.22 8.63801 123.82 8.44462 123.487 8.1223C123.154 7.79999 122.887 7.47767 122.754 7.02643C122.554 6.57519 122.487 6.12395 122.487 5.60825V0.257812H124.62V5.41486C124.62 5.67271 124.62 5.8661 124.686 6.05949C124.753 6.25288 124.82 6.44627 124.953 6.63965C125.086 6.83304 125.286 6.96197 125.486 7.02643C125.686 7.15536 125.953 7.15536 126.286 7.15536C126.619 7.15536 126.819 7.0909 127.086 7.02643C127.285 6.89751 127.485 6.76858 127.619 6.63965C127.752 6.44627 127.819 6.31734 127.885 6.05949C127.952 5.8661 127.952 5.60824 127.952 5.41486V0.257812H130.084V5.60825C130.151 6.12395 130.084 6.57519 129.885 7.02643Z" fill="#322625"></path>
<path d="M146.544 4.51249C146.544 5.28604 146.411 5.93067 146.078 6.44637C145.811 6.96208 145.411 7.41332 144.945 7.80009C144.478 8.18687 143.945 8.38026 143.345 8.57365C142.746 8.76704 142.146 8.8315 141.546 8.8315H138.214V0.257935H141.479C142.079 0.257935 142.746 0.322397 143.345 0.451323C143.945 0.580249 144.478 0.838101 145.011 1.16041C145.478 1.48273 145.878 1.93397 146.144 2.44967C146.411 3.02984 146.544 3.67447 146.544 4.51249ZM144.345 4.51249C144.345 3.99678 144.278 3.61 144.078 3.28769C143.945 2.96538 143.679 2.70752 143.412 2.51414C143.145 2.32075 142.812 2.19182 142.479 2.12736C142.146 2.0629 141.746 1.99843 141.413 1.99843H140.347V7.02654H141.346C141.746 7.02654 142.079 6.96208 142.479 6.89761C142.812 6.83315 143.145 6.70422 143.412 6.51084C143.679 6.31745 143.879 6.05959 144.078 5.73728C144.212 5.41497 144.345 4.96373 144.345 4.51249Z" fill="#322625"></path>
<path d="M154.342 8.83138V0.257812H156.474V8.83138H154.342Z" fill="#322625"></path>
<path d="M174 4.5124C174 5.22149 173.867 5.80166 173.601 6.38182C173.334 6.96199 173.001 7.41323 172.601 7.80001C172.134 8.18678 171.668 8.5091 171.068 8.70249C170.468 8.89587 169.802 9.0248 169.136 9.0248C168.469 9.0248 167.803 8.89587 167.203 8.70249C166.603 8.5091 166.07 8.18678 165.67 7.80001C165.204 7.41323 164.871 6.89753 164.671 6.38182C164.337 5.80166 164.204 5.15703 164.204 4.5124C164.204 3.80331 164.337 3.22314 164.537 2.64298C164.804 2.06281 165.137 1.61157 165.537 1.22479C165.937 0.838017 166.47 0.515703 167.07 0.322314C167.669 0.128926 168.336 0 169.002 0C169.669 0 170.335 0.128926 170.935 0.322314C171.535 0.515703 172.068 0.838017 172.468 1.22479C172.934 1.61157 173.267 2.06281 173.467 2.64298C173.867 3.15868 174 3.80331 174 4.5124ZM171.668 4.5124C171.668 4.12562 171.601 3.80331 171.468 3.48099C171.335 3.15868 171.135 2.90083 170.935 2.64298C170.735 2.38513 170.468 2.2562 170.135 2.12727C169.802 1.99835 169.469 1.93389 169.069 1.93389C168.669 1.93389 168.336 1.99835 168.003 2.12727C167.669 2.2562 167.403 2.44959 167.203 2.64298C167.003 2.90083 166.803 3.15868 166.67 3.48099C166.537 3.80331 166.47 4.12562 166.47 4.5124C166.47 4.89918 166.537 5.28595 166.67 5.60827C166.803 5.93058 167.003 6.18843 167.203 6.44629C167.403 6.70414 167.669 6.89753 168.003 7.02645C168.336 7.15538 168.669 7.21984 169.069 7.21984C169.469 7.21984 169.802 7.15538 170.135 7.02645C170.468 6.89753 170.735 6.70414 170.935 6.44629C171.135 6.18843 171.335 5.93058 171.468 5.60827C171.601 5.22149 171.668 4.89918 171.668 4.5124Z" fill="#322625"></path>
<path d="M110.359 86.5736L73.4395 0.0644531H55.9794H47.9824L73.8393 64.1405L86.7011 94.1802H119.889V86.5736H110.359Z" fill="#322625"></path>
<path d="M19.9258 62.6582L9.72964 86.5739H0V94.1805H15.794L18.9262 86.5739L29.1223 62.9161L19.9258 62.6582Z" fill="#322625"></path>
</svg>