<?xml version="1.0" encoding="UTF-8"?> <svg xmlns="http://www.w3.org/2000/svg" width="234" height="30" viewBox="0 0 234 30" fill="none"><path d="M9.99 12.44L7.95 17.18H12.09L9.99 12.44ZM5.46 23H0.12L10.05 2.24C10.09 2.14 10.15 2.09 10.23 2.09C10.31 2.09 10.37 2.14 10.41 2.24L20.31 23H14.67L13.89 21.26H6.21L5.46 23ZM46.4999 23.3C45.3599 23.3 44.3299 23.18 43.4099 22.94C42.5099 22.7 41.7099 22.4 41.0099 22.04C40.3299 21.68 39.7399 21.28 39.2399 20.84C38.7599 20.38 38.3599 19.94 38.0399 19.52L41.9999 16.55C42.4999 17.17 43.0799 17.7 43.7399 18.14C44.3999 18.56 45.2399 18.77 46.2599 18.77C47.0799 18.77 47.7099 18.65 48.1499 18.41C48.6099 18.15 48.8399 17.73 48.8399 17.15C48.8399 16.71 48.6699 16.37 48.3299 16.13C48.0099 15.87 47.5099 15.63 46.8299 15.41L44.4299 14.6C43.6899 14.36 43.0099 14.06 42.3899 13.7C41.7699 13.34 41.2299 12.91 40.7699 12.41C40.3299 11.91 39.9799 11.34 39.7199 10.7C39.4799 10.04 39.3599 9.29 39.3599 8.45C39.3599 7.45 39.5499 6.57 39.9299 5.81C40.3099 5.05 40.8199 4.42 41.4599 3.92C42.1199 3.4 42.8699 3.01 43.7099 2.75C44.5499 2.49 45.4199 2.36 46.3199 2.36C47.2199 2.36 48.0199 2.44 48.7199 2.6C49.4399 2.74 50.0699 2.94 50.6099 3.2C51.1499 3.44 51.6199 3.72 52.0199 4.04C52.4399 4.36 52.7999 4.7 53.0999 5.06L49.9799 8.33C49.5599 7.89 49.0999 7.54 48.5999 7.28C48.0999 7 47.4399 6.86 46.6199 6.86C45.9599 6.86 45.4599 7 45.1199 7.28C44.7999 7.54 44.6399 7.87 44.6399 8.27C44.6399 8.67 44.7499 8.98 44.9699 9.2C45.2099 9.42 45.5799 9.61 46.0799 9.77L48.7799 10.67C49.7999 11.01 50.6599 11.39 51.3599 11.81C52.0599 12.21 52.6199 12.67 53.0399 13.19C53.4599 13.69 53.7599 14.25 53.9399 14.87C54.1399 15.47 54.2399 16.13 54.2399 16.85C54.2399 17.79 54.0899 18.66 53.7899 19.46C53.4899 20.24 53.0199 20.92 52.3799 21.5C51.7599 22.06 50.9599 22.5 49.9799 22.82C48.9999 23.14 47.8399 23.3 46.4999 23.3ZM77.799 7.19H72.399V2.6H88.659V7.19H83.259V23H77.799V7.19ZM117.256 23.3C115.976 23.3 114.796 23.13 113.716 22.79C112.636 22.45 111.696 21.94 110.896 21.26C110.116 20.58 109.506 19.73 109.066 18.71C108.626 17.69 108.406 16.49 108.406 15.11V2.6H113.866V15.05C113.866 16.21 114.136 17.11 114.676 17.75C115.236 18.37 116.096 18.68 117.256 18.68C118.416 18.68 119.266 18.37 119.806 17.75C120.366 17.11 120.646 16.21 120.646 15.05V2.6H126.106V15.11C126.106 16.49 125.886 17.69 125.446 18.71C125.006 19.73 124.386 20.58 123.586 21.26C122.806 21.94 121.876 22.45 120.796 22.79C119.716 23.13 118.536 23.3 117.256 23.3ZM154.236 18.38C155.896 18.38 157.196 17.88 158.136 16.88C159.096 15.86 159.576 14.5 159.576 12.8C159.576 11.1 159.096 9.75 158.136 8.75C157.196 7.73 155.896 7.22 154.236 7.22H152.406V18.38H154.236ZM146.946 2.6H154.836C156.296 2.6 157.656 2.84 158.916 3.32C160.176 3.78 161.266 4.45 162.186 5.33C163.126 6.21 163.856 7.28 164.376 8.54C164.896 9.8 165.156 11.22 165.156 12.8C165.156 14.38 164.896 15.8 164.376 17.06C163.856 18.32 163.126 19.39 162.186 20.27C161.266 21.15 160.176 21.83 158.916 22.31C157.656 22.77 156.296 23 154.836 23H146.946V2.6ZM185.22 2.6H190.68V23H185.22V2.6ZM221.789 18.53C222.649 18.53 223.409 18.38 224.069 18.08C224.729 17.78 225.289 17.38 225.749 16.88C226.209 16.36 226.559 15.75 226.799 15.05C227.039 14.35 227.159 13.6 227.159 12.8C227.159 12 227.039 11.25 226.799 10.55C226.559 9.85 226.209 9.25 225.749 8.75C225.289 8.23 224.729 7.83 224.069 7.55C223.409 7.25 222.649 7.1 221.789 7.1C220.929 7.1 220.169 7.25 219.509 7.55C218.849 7.83 218.289 8.23 217.829 8.75C217.369 9.25 217.019 9.85 216.779 10.55C216.539 11.25 216.419 12 216.419 12.8C216.419 13.6 216.539 14.35 216.779 15.05C217.019 15.75 217.369 16.36 217.829 16.88C218.289 17.38 218.849 17.78 219.509 18.08C220.169 18.38 220.929 18.53 221.789 18.53ZM221.789 23.27C220.309 23.27 218.909 23.02 217.589 22.52C216.269 22 215.109 21.28 214.109 20.36C213.109 19.42 212.309 18.31 211.709 17.03C211.129 15.75 210.839 14.34 210.839 12.8C210.839 11.26 211.129 9.85 211.709 8.57C212.309 7.29 213.109 6.19 214.109 5.27C215.109 4.35 216.269 3.64 217.589 3.14C218.909 2.62 220.309 2.36 221.789 2.36C223.249 2.36 224.639 2.62 225.959 3.14C227.299 3.64 228.469 4.35 229.469 5.27C230.469 6.19 231.259 7.29 231.839 8.57C232.439 9.85 232.739 11.26 232.739 12.8C232.739 14.34 232.439 15.75 231.839 17.03C231.259 18.31 230.469 19.42 229.469 20.36C228.469 21.28 227.299 22 225.959 22.52C224.639 23.02 223.249 23.27 221.789 23.27Z" fill="#322625"></path></svg> 